<svg id="plus_1_" data-name="plus (1)" xmlns="http://www.w3.org/2000/svg" width="64.5" height="64.5" viewBox="0 0 64.5 64.5">
  <path id="Path_135" data-name="Path 135" d="M32.376,0A32.362,32.362,0,0,0,0,32.124,32.578,32.578,0,0,0,32.376,64.5a32.25,32.25,0,0,0,0-64.5Z" fill="#2ed1a2"/>
  <path id="Path_136" data-name="Path 136" d="M289.124,32.124A32.362,32.362,0,0,1,257,64.5V0A32.145,32.145,0,0,1,289.124,32.124Z" transform="translate(-224.624)" fill="#00ffc4"/>
  <path id="Path_137" data-name="Path 137" d="M131.824,110.786a3.79,3.79,0,0,1-3.779,3.779H114.817v13.479a3.779,3.779,0,0,1-7.559,0V114.565H93.779a3.779,3.779,0,0,1,0-7.559h13.479V93.779a3.779,3.779,0,0,1,7.559,0v13.228h13.228A3.79,3.79,0,0,1,131.824,110.786Z" transform="translate(-78.662 -78.662)" fill="#e1e4fb"/>
  <path id="Path_138" data-name="Path 138" d="M277.786,110.786a3.79,3.79,0,0,1-3.779,3.779H260.779v13.479A3.79,3.79,0,0,1,257,131.824V90a3.79,3.79,0,0,1,3.779,3.779v13.228h13.228A3.79,3.79,0,0,1,277.786,110.786Z" transform="translate(-224.624 -78.662)" fill="#c5c9f7"/>
</svg>
